<?xml version="1.0" standalone="no"?>
<!DOCTYPE svg PUBLIC "-//W3C//DTD SVG 20010904//EN"
 "http://www.w3.org/TR/2001/REC-SVG-20010904/DTD/svg10.dtd">
<svg version="1.0" xmlns="http://www.w3.org/2000/svg"
 width="176.000000pt" height="176.000000pt" viewBox="0 0 176.000000 176.000000"
 preserveAspectRatio="xMidYMid meet">
<metadata>
Created by potrace 1.16, written by Peter Selinger 2001-2019
</metadata>
<g transform="translate(0.000000,176.000000) scale(0.100000,-0.100000)"
fill="#000000" stroke="none">
<path d="M108 1733 c11 -16 46 -55 78 -88 33 -33 89 -94 127 -134 62 -68 67
-77 67 -118 0 -27 -4 -42 -10 -38 -5 3 -10 13 -10 21 0 8 -5 14 -10 14 -12 0
-67 49 -174 155 -39 39 -95 90 -123 114 l-53 43 0 -125 0 -125 70 -43 c39 -24
93 -57 120 -74 134 -81 221 -137 218 -141 -9 -9 -108 -15 -108 -6 0 5 -17 17
-37 28 -21 10 -45 24 -53 30 -8 6 -59 35 -112 63 l-98 50 0 -94 0 -94 38 -10
c21 -6 52 -14 70 -17 29 -6 46 -24 22 -24 -5 0 -10 -13 -10 -30 0 -29 -13 -40
-24 -21 -3 5 -18 11 -33 13 -16 3 -36 9 -46 13 -15 6 -17 0 -17 -73 l0 -80 66
-4 c36 -1 68 0 71 5 5 8 18 -5 50 -50 l22 -31 -56 4 c-31 3 -59 6 -62 6 -4 0
-25 0 -48 -1 l-43 -1 0 -80 c0 -44 3 -80 7 -80 4 0 34 6 67 14 34 8 77 17 97
20 19 4 52 15 72 25 42 21 55 13 52 -34 -2 -28 -5 -30 -51 -38 -27 -4 -58 -11
-69 -16 -37 -16 -131 -41 -153 -41 -21 0 -22 -4 -22 -95 0 -52 2 -95 5 -95 11
0 290 145 293 153 6 13 32 7 32 -7 0 -8 2 -20 5 -28 5 -13 -12 -25 -105 -75
-25 -14 -52 -30 -60 -37 -8 -7 -50 -33 -92 -57 l-78 -44 0 -119 0 -119 53 47
c28 26 66 60 82 75 188 171 234 211 240 211 3 0 3 -4 0 -10 -13 -21 25 -9 39
12 15 21 17 21 32 6 16 -16 11 -23 -68 -105 -47 -48 -112 -117 -144 -152 -33
-35 -84 -91 -114 -124 -30 -32 -56 -63 -58 -68 -2 -5 48 -9 116 -9 l119 0 24
43 c13 24 47 79 74 121 28 42 73 112 100 156 38 61 55 79 70 77 52 -6 48 -18
-111 -315 -19 -34 -34 -67 -34 -73 0 -6 33 -9 87 -7 l87 3 8 35 c15 65 49 175
58 192 6 10 10 28 10 41 0 13 6 32 14 43 9 12 11 23 5 30 -6 8 0 13 22 18 41
8 50 1 39 -32 -4 -15 -18 -76 -30 -137 -11 -60 -25 -124 -31 -141 -16 -52 -14
-54 60 -54 l68 0 7 61 c3 34 6 94 6 134 0 40 3 93 6 118 6 39 10 47 33 51 14
3 42 2 61 -3 23 -6 27 -9 13 -10 -31 -1 -56 -13 -45 -20 6 -3 14 -79 18 -169
l7 -162 69 0 70 0 -5 43 c-3 23 -19 105 -35 182 -31 145 -31 154 11 155 10 0
19 -6 21 -13 2 -6 11 -41 21 -77 9 -36 23 -85 31 -110 7 -25 20 -70 29 -100
23 -83 21 -81 113 -78 l81 3 -55 115 c-31 63 -76 154 -100 202 -24 47 -44 89
-44 93 0 3 8 4 19 0 10 -3 24 1 31 10 7 8 18 15 24 15 18 0 128 60 169 92 21
17 41 28 43 25 8 -7 -37 -47 -53 -47 -28 0 -10 -31 49 -87 35 -32 97 -92 138
-133 42 -41 96 -93 120 -114 25 -22 55 -48 68 -59 l22 -20 0 119 0 120 -32 17
c-18 9 -60 37 -93 62 -33 24 -63 44 -67 44 -12 1 -138 92 -138 100 0 4 19 25
41 46 39 37 45 32 11 -7 -14 -16 -13 -18 3 -18 10 0 41 -15 69 -32 102 -65
192 -118 200 -118 3 0 6 43 6 95 l0 94 -42 11 c-24 6 -56 18 -71 26 -16 8 -39
14 -52 14 -24 0 -49 22 -38 33 3 4 14 0 24 -9 12 -10 19 -12 24 -4 3 6 -4 19
-16 29 -15 12 -19 20 -11 25 7 4 12 3 12 -1 0 -5 8 -9 18 -10 9 0 28 -4 42 -8
14 -3 44 -8 68 -11 l42 -5 0 80 0 81 -52 2 c-29 0 -61 1 -70 0 -13 -1 -18 6
-18 27 0 33 17 41 93 41 l47 0 0 81 0 81 -32 -6 c-18 -4 -42 -8 -53 -10 -46
-7 -75 -19 -75 -30 0 -6 -5 -4 -10 4 -7 11 -12 12 -21 3 -9 -9 -9 -20 0 -44
14 -40 15 -196 1 -204 -6 -3 -10 -16 -10 -28 -1 -33 -29 -79 -83 -136 -26 -28
-50 -51 -52 -51 -8 0 -110 -74 -113 -82 -2 -5 -8 -8 -14 -8 -6 0 -34 -11 -62
-24 -82 -40 -127 -56 -152 -56 -12 0 -26 -4 -29 -10 -3 -5 -24 -10 -45 -10
-21 0 -42 -5 -45 -10 -7 -11 -267 -8 -295 3 -8 3 -36 8 -62 11 -47 5 -89 25
-164 77 -83 57 -141 194 -117 273 10 34 2 59 -12 36 -7 -11 -77 62 -123 127
-40 55 -52 88 -52 138 0 42 2 44 47 66 31 15 69 23 112 25 91 3 123 -4 116
-26 -3 -10 -1 -21 5 -25 6 -4 10 4 10 19 0 30 62 91 119 118 20 9 45 26 55 37
11 12 25 21 33 21 7 0 13 5 13 10 0 6 6 10 13 10 8 0 22 9 31 19 10 11 31 23
46 26 15 3 35 14 45 25 9 10 31 21 49 24 18 4 41 15 51 26 26 29 92 26 152 -5
26 -14 50 -29 53 -33 9 -13 74 -58 93 -65 22 -8 35 -39 18 -45 -9 -3 -9 -7 0
-18 13 -16 39 -19 39 -3 0 5 -5 7 -10 4 -5 -3 -10 1 -10 9 0 24 13 19 50 -19
19 -19 40 -35 47 -35 8 0 13 -12 13 -29 0 -16 6 -31 13 -34 6 -2 9 -8 4 -12
-4 -5 -13 -3 -19 3 -16 16 -89 15 -125 0 -91 -39 -142 -114 -143 -208 0 -60
11 -83 67 -137 41 -39 51 -79 29 -122 -9 -17 -20 -31 -25 -31 -5 0 -11 -6 -14
-14 -4 -11 -1 -11 19 -2 13 6 24 15 24 19 0 5 4 5 10 2 5 -3 9 2 8 12 -1 10 1
34 6 54 6 29 15 38 52 55 24 10 44 22 44 27 0 4 8 7 19 7 10 0 30 9 43 20 22
17 126 39 151 32 4 -1 7 9 7 23 0 16 -6 25 -15 25 -11 0 -15 11 -15 37 0 49
-26 106 -55 119 -23 11 -23 11 -10 -10 22 -33 35 -137 20 -158 -6 -10 -15 -15
-18 -12 -4 4 -12 2 -20 -4 -7 -6 -18 -7 -27 -2 -11 7 -11 13 4 34 19 31 13 50
-12 37 -23 -12 -55 2 -81 35 -22 29 -27 59 -11 69 17 11 11 35 -9 35 -65 0
-132 -59 -133 -116 -2 -92 -1 -94 32 -88 36 8 60 -9 60 -42 0 -17 4 -22 15
-18 26 11 16 -11 -12 -23 -33 -16 -46 -16 -38 -3 3 6 -3 10 -15 10 -13 0 -25
10 -33 28 -6 15 -15 30 -20 33 -4 3 -11 30 -13 60 -9 88 34 149 131 185 23 8
85 11 85 4 0 -7 74 -30 79 -24 2 2 -3 12 -12 22 -10 10 -14 22 -10 25 3 4 -1
15 -11 26 -16 17 -15 20 9 49 14 16 25 35 25 40 0 21 60 54 86 48 20 -5 39 2
82 31 57 37 109 68 170 100 l32 17 0 113 c0 89 -3 112 -12 107 -7 -5 -56 -44
-108 -88 -52 -45 -101 -85 -109 -91 -7 -5 -26 -22 -41 -37 -16 -16 -32 -28
-36 -28 -4 0 -21 -12 -36 -27 l-29 -27 -6 22 c-3 12 -9 22 -14 22 -25 0 0 38
79 120 48 50 111 117 141 150 l53 60 -121 0 c-88 0 -121 -3 -121 -12 0 -7 -18
-38 -40 -69 -22 -32 -40 -62 -40 -68 0 -6 -4 -11 -10 -11 -5 0 -10 -6 -10 -14
0 -26 -21 -29 -46 -5 -20 18 -22 24 -10 31 7 4 17 19 20 33 3 13 17 41 31 61
14 20 25 41 25 45 0 5 -40 9 -89 9 l-89 0 -11 -30 c-11 -34 -10 -34 -45 -20
-16 6 -26 17 -26 30 0 19 -6 20 -190 20 -152 0 -190 -3 -190 -13 0 -15 -31
-47 -46 -47 -5 0 -15 14 -21 30 l-11 30 -91 0 c-50 0 -91 -4 -91 -9 0 -4 8
-19 18 -32 41 -57 42 -63 12 -91 -30 -28 -40 -27 -40 4 0 10 -4 18 -9 18 -5 0
-21 25 -37 55 l-29 55 -123 0 -123 0 19 -27z"/>
<path d="M1664 1321 c-39 -20 -76 -35 -82 -33 -6 2 0 -17 13 -43 14 -25 25
-56 25 -69 0 -28 10 -39 24 -27 6 5 35 14 64 21 l52 12 0 89 c0 65 -3 89 -12
89 -7 -1 -45 -18 -84 -39z"/>
<path d="M672 972 c-28 -24 -46 -52 -24 -38 15 9 105 -23 129 -46 13 -12 23
-32 23 -45 0 -13 4 -22 9 -19 5 3 11 -13 15 -35 7 -42 -1 -108 -13 -110 -30
-4 -50 -7 -76 -13 -16 -3 -24 -3 -17 0 15 7 42 57 42 79 0 11 -10 15 -39 15
-62 0 -99 58 -70 112 6 11 8 22 5 25 -13 13 -89 -20 -116 -50 -52 -57 -50
-147 4 -147 32 0 50 -24 41 -57 -5 -23 -4 -25 9 -14 9 7 23 10 33 7 14 -6 13
-9 -8 -20 -13 -7 -39 -18 -57 -24 -31 -11 -36 -9 -66 21 -29 28 -48 68 -50
102 0 6 3 32 7 58 8 56 35 99 77 124 34 20 39 33 11 33 -25 0 -83 -57 -105
-104 -20 -43 -25 -139 -7 -160 6 -7 8 -16 5 -19 -4 -3 10 -23 30 -44 20 -21
36 -44 36 -50 0 -15 36 -17 45 -3 4 6 11 8 16 5 5 -4 9 -1 9 4 0 14 37 14 45
1 3 -5 10 -10 16 -10 5 0 9 5 9 10 0 6 -7 10 -15 10 -8 0 -15 5 -15 10 0 6 6
10 13 10 8 0 29 8 48 17 46 24 141 43 153 32 6 -5 23 -9 39 -9 16 0 26 -4 22
-10 -8 -12 32 -56 42 -46 4 4 1 11 -7 16 -8 5 -16 15 -16 22 -1 7 -2 18 -3 25
-1 8 -13 10 -36 6 -23 -4 -35 -2 -35 6 0 6 11 11 25 11 27 0 35 27 11 36 -9 4
-11 15 -6 43 4 21 10 43 14 49 4 7 3 12 -3 12 -16 0 -47 73 -33 78 7 2 12 9
12 15 0 8 -3 8 -12 -1 -8 -8 -22 -1 -56 28 -25 23 -55 40 -68 40 -25 0 -33 15
-11 23 6 2 10 7 7 10 -3 3 -20 -7 -38 -21z"/>
<path d="M1054 795 c-10 -8 -40 -15 -66 -15 -41 0 -46 -2 -41 -20 4 -14 0 -20
-12 -20 -12 0 -15 5 -10 20 5 15 3 18 -9 14 -24 -9 -31 -53 -15 -83 22 -39 56
-53 117 -46 64 6 109 41 118 92 11 58 -37 92 -82 58z"/>
<path d="M1255 447 c-57 -32 -67 -40 -58 -46 6 -3 25 -33 42 -66 17 -33 49
-91 72 -130 22 -38 43 -78 46 -88 3 -9 9 -17 12 -17 4 0 18 -22 31 -50 l23
-50 124 0 124 0 -12 23 c-6 12 -21 31 -33 42 -12 11 -54 59 -95 107 -40 49
-84 98 -97 110 -13 13 -24 27 -24 31 0 5 -12 21 -27 36 -16 15 -42 43 -59 62
-39 46 -45 49 -69 36z"/>
</g>
</svg>
